<svg xmlns="http://www.w3.org/2000/svg" xml:space="preserve" width="634px" height="99px" version="1.1" style="shape-rendering:geometricPrecision; text-rendering:geometricPrecision; image-rendering:optimizeQuality; fill-rule:evenodd; clip-rule:evenodd"
viewBox="0 0 371.65 58.08">

  <style type="text/css">
   <![CDATA[
    .fil0 {fill:black;fill-rule:nonzero}
   ]]>
  </style>
 <g id="main">
  <path class="fil0" d="M27.14 16.41c-2.42,0 -4.66,-0.4 -6.7,-1.2 -2.72,-1.07 -4.09,-2.61 -4.09,-4.63 0,-3.24 3.55,-5.94 10.64,-8.09 5.51,-1.66 10.46,-2.49 14.84,-2.49 4.39,0 6.58,1.45 6.58,4.34 0,1.6 -1.58,3.15 -4.75,4.64 -2.79,1.31 -5.12,1.98 -6.98,1.98 -1.17,0 -1.75,-0.49 -1.75,-1.47 0,-0.61 0.49,-1.24 1.45,-1.89 0.89,-0.62 1.66,-0.92 2.32,-0.92 0.38,0 0.57,0.15 0.57,0.43 0,0.13 -0.26,0.33 -0.77,0.63 -0.59,0.28 -0.93,0.48 -1.05,0.6 0.17,0.15 0.41,0.22 0.71,0.22 1,0 2.67,-0.57 4.99,-1.71 2.53,-1.24 3.79,-2.28 3.79,-3.11 0,-0.77 -1.38,-1.16 -4.15,-1.16 -3.09,0 -6.77,0.55 -11.03,1.64 -2.82,0.74 -5.43,1.6 -7.81,2.58 -3.86,1.61 -5.78,3.11 -5.78,4.51 0,1.68 2.66,2.87 7.99,3.56 3.06,0.4 6.45,0.6 10.2,0.6 0.77,0 1.15,0.28 1.15,0.85 0,1.04 -1.23,1.61 -3.69,1.73 -7.51,0.34 -14.65,2.09 -21.44,5.26 -6.97,3.23 -10.45,6.46 -10.45,9.69 0,3.16 2.7,4.74 8.1,4.74 3.22,0 6.35,-0.72 9.39,-2.18 2.04,-0.97 4.06,-2.31 6.06,-4.02 1.72,-1.46 2.6,-2.18 2.64,-2.18 0.44,0 0.66,0.54 0.66,1.6 0,1.78 -1.97,3.81 -5.9,6.1 -3.93,2.29 -7.91,3.44 -11.91,3.44 -7.32,0 -10.97,-2.91 -10.97,-8.74 0,-3.78 2.6,-7.06 7.79,-9.82 3.47,-1.86 7.76,-3.33 12.86,-4.45 1.42,-0.36 3.59,-0.72 6.49,-1.08zm16.13 14.7c5.25,-4.44 8.93,-6.67 11.05,-6.67 1.35,0 2.03,0.63 2.03,1.91 0,1.13 -1.52,3.17 -4.57,6.11 -3.05,2.95 -4.57,4.72 -4.57,5.34 0,0.61 0.33,0.94 0.99,0.99 0.67,0.05 1,0.21 1,0.49 0,0.39 -0.69,0.57 -2.07,0.57 -1.59,0 -2.39,-0.7 -2.39,-2.12 0,-1.18 0.77,-2.68 2.3,-4.49 0.79,-0.94 2.21,-2.38 4.26,-4.33 1.53,-1.45 2.29,-2.33 2.29,-2.64 0,-0.24 -0.17,-0.37 -0.51,-0.37 -1.09,0 -3.46,1.46 -7.1,4.36 -3.04,2.41 -5.29,4.39 -6.76,5.94 -1.88,1.96 -3.01,2.95 -3.41,2.95 -0.31,0 -0.58,-0.15 -0.83,-0.44 -0.25,-0.3 -0.37,-0.61 -0.37,-0.94 0,-0.44 1.32,-2.21 3.94,-5.31l4.72 -5.59 -7.33 5.96 -5.42 4.16c-2.74,1.87 -4.85,2.8 -6.33,2.8 -0.24,0 -0.37,-0.11 -0.37,-0.35 0,-0.35 0.27,-0.58 0.8,-0.7 0.73,-0.14 1.58,-0.42 2.55,-0.86 1.4,-0.61 4.24,-2.65 8.54,-6.12 3.86,-3.12 6.63,-5.51 8.33,-7.17 0.28,-0.29 0.73,-0.63 1.35,-1.03 0.3,-0.12 0.63,-0.18 0.98,-0.18 0.32,0 0.64,0.11 0.98,0.34 0.34,0.21 0.5,0.47 0.5,0.78 0,0.34 -1.52,2.55 -4.58,6.61zm31.62 -12.83c-0.89,0 -1.34,-0.46 -1.34,-1.4 0,-0.8 0.47,-1.52 1.4,-2.13 0.84,-0.58 1.67,-0.86 2.51,-0.86 0.98,0 1.48,0.55 1.48,1.64 0,0.76 -0.5,1.44 -1.48,2 -0.87,0.5 -1.73,0.75 -2.57,0.75zm-13.97 20.63c0.86,-0.07 1.6,-0.11 2.23,-0.11 0.25,0 0.38,0.15 0.38,0.48 0,0.34 -0.48,0.53 -1.43,0.57l-1.95 0.09c-1.72,2.04 -5.16,5.8 -10.32,11.28 -3.24,3.44 -5.38,5.16 -6.4,5.16 -0.98,0 -1.47,-0.58 -1.47,-1.72 0,-2.31 1.42,-5.12 4.24,-8.45 2.83,-3.33 6.54,-5.65 11.14,-6.94 3.63,-4 7.14,-8.23 10.5,-12.71 -2.83,2.49 -5.63,4.85 -8.41,7.09 -5.12,4.09 -8.68,6.14 -10.68,6.14 -0.23,0 -0.34,-0.11 -0.34,-0.36 0,-0.36 0.26,-0.59 0.8,-0.69 0.66,-0.12 1.55,-0.43 2.67,-0.94 1.22,-0.58 3.61,-2.3 7.17,-5.16 3.46,-2.79 6.12,-5.08 7.97,-6.83 1.75,-1.69 2.93,-2.54 3.55,-2.54 1.01,0 1.51,0.38 1.51,1.14 0,0.68 -0.46,1.58 -1.4,2.7l-9.76 11.8zm-4.44 1.7c-3.93,1.22 -7.15,3.33 -9.67,6.33 -2.53,3.01 -3.79,5.39 -3.79,7.14 0,0.48 0.16,0.72 0.48,0.72 0.73,0 5.05,-4.73 12.98,-14.19zm19.2 -8.46l-5.89 4.49c-3.02,2.1 -5.27,3.15 -6.76,3.15 -0.22,0 -0.34,-0.11 -0.34,-0.36 0,-0.38 0.19,-0.61 0.58,-0.69 1.16,-0.21 2.14,-0.54 2.96,-1 1.43,-0.78 3.76,-2.44 6.99,-4.98l7.55 -6.18c1.44,-1.27 2.33,-1.91 2.65,-1.91 0.47,0 1,0.27 1.57,0.79 1.1,-0.84 2.09,-1.26 2.95,-1.26 1.3,0 1.94,0.7 1.94,2.09 0,2.08 -1.66,4.91 -4.97,8.48 -3.37,3.63 -6.1,5.43 -8.18,5.43 -1.94,0 -2.91,-1.01 -2.91,-3.05 0,-1.07 0.62,-2.74 1.86,-5zm9.69 0.07c0.7,-0.66 1.41,-1.57 2.11,-2.72 0.78,-1.32 1.17,-2.37 1.17,-3.16 0,-0.72 -0.31,-1.08 -0.94,-1.08 -0.93,0 -1.86,0.58 -2.81,1.76 -0.94,1.18 -1.41,2.24 -1.41,3.2 0,1.07 0.63,1.74 1.88,2zm-2.8 -3.59c-3.87,3.41 -5.82,6.18 -5.82,8.32 0,0.92 0.44,1.38 1.31,1.38 1.43,0 3.66,-1.73 6.68,-5.19 -1.61,-0.38 -2.42,-1.42 -2.42,-3.1 0,-0.44 0.09,-0.91 0.25,-1.41zm23.43 10.23l1.81 -0.06c0.26,0 0.38,0.15 0.38,0.47 0,0.35 -0.44,0.56 -1.33,0.64l-1.8 0.09 -7.99 9.88c-4.79,5.46 -8.18,8.2 -10.19,8.2 -0.95,0 -1.42,-0.65 -1.42,-1.93 0,-2.85 1.87,-6.14 5.61,-9.88 3.75,-3.74 7.61,-6.06 11.58,-6.96l5.93 -7.59 -4.69 4.18c-2.86,2.36 -4.82,3.54 -5.84,3.54 -1.21,0 -1.81,-0.85 -1.81,-2.54 0,-1.47 0.69,-3.19 2.09,-5.18l3.49 -4.39c-2.25,2 -4.84,4.16 -7.75,6.49 -2.38,1.88 -3.99,3.1 -4.83,3.66 -2.31,1.54 -4.17,2.31 -5.61,2.31 -0.23,0 -0.34,-0.12 -0.34,-0.39 0,-0.34 0.19,-0.56 0.57,-0.66 2.41,-0.59 5.72,-2.61 9.96,-6.07l5 -4.1 3.23 -2.85c1.81,-1.56 2.83,-2.34 3.06,-2.34 0.5,0 0.97,0.17 1.41,0.5 0.45,0.33 0.68,0.74 0.68,1.22l-4.51 5.24c-3.01,3.56 -4.52,5.94 -4.52,7.12 0,0.34 0.2,0.52 0.58,0.52 1.14,0 3.94,-2.12 8.38,-6.35 3.26,-3.11 5.98,-5.88 8.13,-8.32 0.44,-0.5 0.76,-0.75 0.94,-0.75 0.37,0 0.75,0.13 1.14,0.38 0.39,0.27 0.58,0.56 0.58,0.9 0,0.2 -0.12,0.42 -0.37,0.69 -3.51,3.8 -7.36,8.57 -11.55,14.33zm-4.36 1.71c-3.84,1.24 -7.31,3.51 -10.44,6.81 -3.13,3.3 -4.69,6.02 -4.69,8.14 0,0.65 0.23,0.98 0.68,0.98 1.84,0 6.66,-5.32 14.45,-15.93zm32.19 -22.4c-0.9,0 -1.36,-0.47 -1.36,-1.41 0,-0.79 0.47,-1.49 1.39,-2.13 0.84,-0.57 1.67,-0.86 2.51,-0.86 0.99,0 1.49,0.55 1.49,1.64 0,0.78 -0.5,1.46 -1.49,2.01 -0.85,0.49 -1.7,0.75 -2.54,0.75zm-12.62 19.86c0,0.51 0.56,0.77 1.68,0.77 0.25,0 0.38,0.15 0.38,0.48 0,0.38 -0.64,0.57 -1.9,0.57 -1.43,0 -2.15,-0.69 -2.15,-2.07 0,-1.6 2.12,-4.96 6.37,-10.07l-7.81 6.4c-4.62,3.79 -7.97,5.68 -10.05,5.68 -0.23,0 -0.35,-0.12 -0.35,-0.39 0,-0.36 0.2,-0.58 0.58,-0.66 1.2,-0.23 2.3,-0.62 3.28,-1.17 1.24,-0.69 3.88,-2.63 7.9,-5.82l8.76 -7.34c0.38,-0.14 0.89,-0.21 1.54,-0.21 0.65,0 0.98,0.38 0.98,1.12 0,0.8 -1.54,2.96 -4.6,6.48 -3.07,3.52 -4.61,5.59 -4.61,6.23zm20.7 -6.92c5.25,-4.44 8.93,-6.67 11.05,-6.67 1.36,0 2.03,0.63 2.03,1.91 0,1.13 -1.52,3.17 -4.57,6.11 -3.05,2.95 -4.57,4.72 -4.57,5.34 0,0.61 0.33,0.94 0.99,0.99 0.67,0.05 1,0.21 1,0.49 0,0.39 -0.69,0.57 -2.07,0.57 -1.59,0 -2.38,-0.7 -2.38,-2.12 0,-1.18 0.76,-2.68 2.29,-4.49 0.79,-0.94 2.21,-2.38 4.26,-4.33 1.54,-1.45 2.3,-2.33 2.3,-2.64 0,-0.24 -0.18,-0.37 -0.52,-0.37 -1.08,0 -3.46,1.46 -7.1,4.36 -3.04,2.41 -5.29,4.39 -6.76,5.94 -1.88,1.96 -3.01,2.95 -3.41,2.95 -0.3,0 -0.58,-0.15 -0.83,-0.44 -0.24,-0.3 -0.37,-0.61 -0.37,-0.94 0,-0.44 1.32,-2.21 3.95,-5.31l4.71 -5.59 -7.32 5.96 -5.42 4.16c-2.75,1.87 -4.86,2.8 -6.33,2.8 -0.25,0 -0.37,-0.11 -0.37,-0.35 0,-0.35 0.26,-0.58 0.8,-0.7 0.72,-0.14 1.57,-0.42 2.55,-0.86 1.39,-0.61 4.23,-2.65 8.53,-6.12 3.86,-3.12 6.63,-5.51 8.33,-7.17 0.29,-0.29 0.74,-0.63 1.35,-1.03 0.31,-0.12 0.63,-0.18 0.98,-0.18 0.32,0 0.64,0.11 0.99,0.34 0.33,0.21 0.49,0.47 0.49,0.78 0,0.34 -1.52,2.55 -4.58,6.61zm16.55 2.24c-2.69,2.1 -4.42,3.4 -5.18,3.89 -2.52,1.7 -4.47,2.55 -5.86,2.55 -0.24,0 -0.37,-0.11 -0.37,-0.36 0,-0.34 0.23,-0.57 0.68,-0.69 2.03,-0.48 4.54,-1.88 7.53,-4.19l8 -6.36c3.85,-2.81 6.76,-4.22 8.73,-4.22 1.62,0 2.41,0.91 2.37,2.72 0.9,-1.03 1.54,-1.55 1.93,-1.55 0.55,0 0.82,0.31 0.82,0.95 0,0.59 -3.2,4.85 -9.62,12.8 0.12,0 0.35,-0.01 0.68,-0.04 0.28,-0.03 0.5,-0.05 0.65,-0.05 0.26,0 0.38,0.15 0.38,0.48 0,0.34 -0.38,0.55 -1.13,0.63l-1.52 0.08c-9.29,11.51 -16.13,17.27 -20.5,17.27 -1.79,0 -2.69,-0.75 -2.69,-2.26 0,-2.4 1.79,-5.23 5.36,-8.48 3.57,-3.25 8.55,-5.63 14.93,-7.14 1.64,-1.82 2.96,-3.49 3.97,-5 -1.95,1.69 -3.18,2.74 -3.7,3.12 -1.71,1.26 -3.17,1.88 -4.35,1.88 -1.39,0 -2.09,-0.84 -2.09,-2.52 0,-1.06 0.32,-2.23 0.98,-3.51zm14.85 -7.07c0,-0.68 -0.32,-1.02 -0.95,-1.02 -1.22,0 -3.58,1.66 -7.06,4.98 -3.49,3.32 -5.24,5.65 -5.24,6.96 0,0.48 0.19,0.72 0.55,0.72 1.06,0 3.43,-1.6 7.07,-4.8 3.75,-3.29 5.63,-5.58 5.63,-6.84zm-10.69 14.51c-4.25,1.02 -8.35,3.15 -12.29,6.41 -3.94,3.24 -5.92,5.8 -5.92,7.68 0,0.8 0.35,1.2 1.06,1.2 1.6,0 4.58,-2.12 8.95,-6.39 3.25,-3.18 5.98,-6.15 8.2,-8.9zm42.23 -15.61c1,-0.73 1.98,-1.09 2.96,-1.09 0.82,0 1.53,0.3 2.1,0.92 0.55,0.6 0.83,1.34 0.83,2.2 0,2.44 -1.36,5.12 -4.09,8.02 -2.77,2.96 -5.37,4.45 -7.79,4.45 -2.32,0 -3.47,-1.2 -3.47,-3.59 0,-1.26 0.55,-3.02 1.63,-5.26 -2.96,2.64 -5.04,4.42 -6.24,5.32 -3.19,2.43 -5.67,3.64 -7.45,3.64 -0.23,0 -0.33,-0.11 -0.31,-0.36 0,-0.36 0.25,-0.59 0.75,-0.69 1.94,-0.4 4.57,-1.92 7.89,-4.54 3.68,-2.91 7.19,-6.44 10.52,-10.56 4.99,-6.19 9.28,-10.79 12.83,-13.77 3.72,-3.1 6.2,-4.65 7.42,-4.65 1.2,0 1.79,0.58 1.79,1.76 0,1.3 -1.21,3.31 -3.63,6.06 -2.06,2.32 -5.88,5.26 -11.46,8.82 -0.78,0.46 -1.91,1.17 -3.41,2.15 -0.23,0.16 -0.52,0.56 -0.87,1.17zm18.2 -17.98c0,-0.23 -0.1,-0.34 -0.28,-0.34 -0.88,0 -3.48,2.23 -7.81,6.7 -3.5,3.6 -6.02,6.37 -7.55,8.27 7.55,-4.64 12.39,-8.71 14.53,-12.23 0.74,-1.2 1.11,-2 1.11,-2.4zm-17.26 24.87c1.82,-2.18 2.73,-3.97 2.73,-5.35 0,-0.97 -0.4,-1.46 -1.21,-1.46 -0.94,0 -1.81,0.46 -2.59,1.37 -0.79,0.9 -1.18,1.83 -1.18,2.79 0,1.31 0.75,2.19 2.25,2.65zm-0.66 0.89c-1.77,-0.75 -2.65,-1.92 -2.65,-3.5 0,-0.6 0.21,-1.34 0.61,-2.22 -3.92,4.96 -5.88,8.28 -5.88,9.96 0,0.8 0.37,1.19 1.12,1.19 1.78,0 4.04,-1.81 6.8,-5.43zm21.84 1.45c-3.33,3.23 -5.77,4.86 -7.34,4.86 -1.18,0 -1.77,-0.66 -1.77,-1.98 0,-1.54 0.68,-3.27 2.06,-5.19l3.68 -4.35 -8.17 6.78c-4.61,3.5 -7.85,5.26 -9.72,5.26 -0.22,0 -0.34,-0.12 -0.34,-0.38 0,-0.33 0.28,-0.55 0.83,-0.67 0.71,-0.14 1.54,-0.42 2.48,-0.86 1.12,-0.51 3.44,-2.17 7.01,-4.96 1.64,-1.28 4.05,-3.29 7.23,-6 0.53,-0.56 1.39,-1.31 2.57,-2.26 0.48,-0.3 0.91,-0.46 1.31,-0.46 1.11,0 1.66,0.37 1.66,1.09 0,0.74 -1.33,2.59 -4.01,5.54 -2.68,2.95 -4.02,5.06 -4.02,6.31 0,0.32 0.18,0.48 0.52,0.48 1.14,0 3.69,-2.17 7.64,-6.53 3.96,-4.36 6.19,-6.53 6.73,-6.53 0.26,0 0.53,0.13 0.78,0.41 0.27,0.27 0.39,0.55 0.39,0.84 0,0.45 -1.46,2.38 -4.39,5.77 -2.93,3.39 -4.4,5.56 -4.4,6.5 0,0.44 0.32,0.67 0.97,0.69 0.64,0.02 0.97,0.18 0.97,0.51 0,0.38 -0.48,0.57 -1.45,0.57 -1.61,0 -2.42,-0.61 -2.42,-1.83 0,-0.88 0.4,-2.09 1.2,-3.61zm11.24 0.45c-3.96,3.29 -6.97,4.93 -9.03,4.93 -0.23,0 -0.35,-0.11 -0.35,-0.36 0,-0.36 0.2,-0.59 0.58,-0.69 0.7,-0.18 1.79,-0.56 3.26,-1.14 1.37,-0.75 4.87,-3.45 10.47,-8.12 5.33,-4.42 8.05,-6.62 8.19,-6.62 0.44,0 0.87,0.18 1.3,0.56 0.43,0.38 0.64,0.79 0.64,1.23 0,1.4 -1.08,3.84 -3.26,7.35 -1.89,3.03 -3.55,5.29 -4.95,6.8 0.87,0 1.3,0.15 1.3,0.47 0,0.39 -0.41,0.58 -1.23,0.58 -0.22,0 -0.53,-0.03 -0.95,-0.09 -0.42,-0.05 -0.74,-0.08 -0.96,-0.08 -0.15,0 -0.38,0.02 -0.68,0.05 -0.31,0.04 -0.54,0.06 -0.7,0.06 -2.42,0 -3.63,-1.64 -3.63,-4.93zm4.54 2.52c1.34,-1.1 2.82,-3.02 4.42,-5.73 1.48,-2.52 2.52,-4.75 3.11,-6.68l-10.24 8.32c0.71,0.11 1.3,0.67 1.78,1.67l0.93 2.42zm-0.83 0.89l-0.8 -2.27c-0.42,-1.1 -0.83,-1.66 -1.23,-1.66 -0.42,0 -0.62,0.33 -0.62,0.98 0,0.64 0.19,1.32 0.57,2.01 0.44,0.78 0.95,1.17 1.55,1.17 0.22,0 0.41,-0.07 0.53,-0.23zm30.05 -20.1c-0.91,0 -1.37,-0.47 -1.37,-1.41 0,-0.79 0.47,-1.49 1.4,-2.13 0.84,-0.57 1.67,-0.86 2.51,-0.86 0.98,0 1.48,0.55 1.48,1.64 0,0.78 -0.5,1.46 -1.48,2.01 -0.85,0.49 -1.7,0.75 -2.54,0.75zm-12.62 19.86c0,0.51 0.56,0.77 1.68,0.77 0.24,0 0.37,0.15 0.37,0.48 0,0.38 -0.64,0.57 -1.9,0.57 -1.43,0 -2.14,-0.69 -2.14,-2.07 0,-1.6 2.12,-4.96 6.36,-10.07l-7.81 6.4c-4.62,3.79 -7.97,5.68 -10.05,5.68 -0.23,0 -0.34,-0.12 -0.34,-0.39 0,-0.36 0.19,-0.58 0.57,-0.66 1.2,-0.23 2.3,-0.62 3.29,-1.17 1.24,-0.69 3.87,-2.63 7.9,-5.82l8.75 -7.34c0.38,-0.14 0.9,-0.21 1.54,-0.21 0.66,0 0.98,0.38 0.98,1.12 0,0.8 -1.53,2.96 -4.6,6.48 -3.07,3.52 -4.6,5.59 -4.6,6.23zm20.7 -6.92c5.24,-4.44 8.92,-6.67 11.04,-6.67 1.36,0 2.03,0.63 2.03,1.91 0,1.13 -1.52,3.17 -4.57,6.11 -3.04,2.95 -4.57,4.72 -4.57,5.34 0,0.61 0.33,0.94 1,0.99 0.66,0.05 0.99,0.21 0.99,0.49 0,0.39 -0.69,0.57 -2.07,0.57 -1.59,0 -2.38,-0.7 -2.38,-2.12 0,-1.18 0.76,-2.68 2.3,-4.49 0.79,-0.94 2.2,-2.38 4.25,-4.33 1.54,-1.45 2.3,-2.33 2.3,-2.64 0,-0.24 -0.18,-0.37 -0.52,-0.37 -1.08,0 -3.45,1.46 -7.1,4.36 -3.04,2.41 -5.28,4.39 -6.76,5.94 -1.87,1.96 -3.01,2.95 -3.41,2.95 -0.3,0 -0.57,-0.15 -0.83,-0.44 -0.24,-0.3 -0.37,-0.61 -0.37,-0.94 0,-0.44 1.32,-2.21 3.95,-5.31l4.72 -5.59 -7.33 5.96 -5.42 4.16c-2.75,1.87 -4.86,2.8 -6.33,2.8 -0.24,0 -0.37,-0.11 -0.37,-0.35 0,-0.35 0.26,-0.58 0.8,-0.7 0.72,-0.14 1.57,-0.42 2.55,-0.86 1.4,-0.61 4.24,-2.65 8.54,-6.12 3.85,-3.12 6.63,-5.51 8.33,-7.17 0.28,-0.29 0.73,-0.63 1.35,-1.03 0.3,-0.12 0.62,-0.18 0.97,-0.18 0.32,0 0.65,0.11 0.99,0.34 0.33,0.21 0.5,0.47 0.5,0.78 0,0.34 -1.53,2.55 -4.58,6.61zm16.18 4.05c-0.96,0.23 -2.75,1.11 -5.4,2.63 -2.33,1.34 -4.09,2 -5.3,2 -0.23,0 -0.35,-0.12 -0.35,-0.39 0,-0.36 0.25,-0.58 0.75,-0.66 1.17,-0.19 2.81,-0.9 4.93,-2.13 2.33,-1.33 4.24,-2.16 5.71,-2.5 0.88,-2.12 2.7,-4.35 5.44,-6.68 2.93,-2.5 5.42,-3.75 7.49,-3.75 1.53,0 2.29,0.65 2.29,1.95 0,1.7 -1.62,3.56 -4.85,5.57 -2.37,1.49 -4.8,2.66 -7.29,3.5 -0.26,0.6 -0.4,1.23 -0.4,1.88 0,0.98 0.35,1.61 1.04,1.9 0.35,0.14 1,0.22 1.97,0.26 0.69,0.02 1.03,0.19 1.03,0.52 0,0.51 -1.18,0.77 -3.53,0.77 -2.49,0 -3.73,-1.08 -3.73,-3.24 0,-0.49 0.06,-1.03 0.2,-1.63zm3.76 -1.63c1.76,-0.86 3.62,-2.03 5.56,-3.5 2.6,-1.94 3.9,-3.47 3.9,-4.61 0,-0.45 -0.21,-0.69 -0.63,-0.69 -1.25,0 -2.94,1.15 -5.08,3.46 -1.9,2.09 -3.15,3.87 -3.75,5.34zm11.86 1.33c-3.97,3.29 -6.98,4.93 -9.04,4.93 -0.22,0 -0.34,-0.11 -0.34,-0.36 0,-0.36 0.2,-0.59 0.58,-0.69 0.7,-0.18 1.79,-0.56 3.26,-1.14 1.37,-0.75 4.87,-3.45 10.47,-8.12 5.32,-4.42 8.05,-6.62 8.19,-6.62 0.44,0 0.87,0.18 1.3,0.56 0.43,0.38 0.64,0.79 0.64,1.23 0,1.4 -1.08,3.84 -3.26,7.35 -1.9,3.03 -3.55,5.29 -4.95,6.8 0.87,0 1.3,0.15 1.3,0.47 0,0.39 -0.41,0.58 -1.24,0.58 -0.21,0 -0.52,-0.03 -0.94,-0.09 -0.42,-0.05 -0.75,-0.08 -0.96,-0.08 -0.16,0 -0.38,0.02 -0.68,0.05 -0.32,0.04 -0.54,0.06 -0.7,0.06 -2.42,0 -3.63,-1.64 -3.63,-4.93zm4.54 2.52c1.34,-1.1 2.81,-3.02 4.42,-5.73 1.48,-2.52 2.52,-4.75 3.11,-6.68l-10.24 8.32c0.71,0.11 1.29,0.67 1.77,1.67l0.94 2.42zm-0.83 0.89l-0.8 -2.27c-0.42,-1.1 -0.83,-1.66 -1.23,-1.66 -0.42,0 -0.63,0.33 -0.63,0.98 0,0.64 0.2,1.32 0.58,2.01 0.44,0.78 0.95,1.17 1.54,1.17 0.23,0 0.41,-0.07 0.54,-0.23zm12.97 -3.41c-3.96,3.29 -6.97,4.93 -9.03,4.93 -0.23,0 -0.34,-0.11 -0.34,-0.36 0,-0.36 0.19,-0.59 0.57,-0.69 0.71,-0.18 1.79,-0.56 3.26,-1.14 1.37,-0.75 4.87,-3.45 10.48,-8.12 5.32,-4.42 8.04,-6.62 8.18,-6.62 0.44,0 0.87,0.18 1.3,0.56 0.43,0.38 0.64,0.79 0.64,1.23 0,1.4 -1.08,3.84 -3.26,7.35 -1.89,3.03 -3.54,5.29 -4.95,6.8 0.87,0 1.3,0.15 1.3,0.47 0,0.39 -0.41,0.58 -1.23,0.58 -0.22,0 -0.53,-0.03 -0.95,-0.09 -0.42,-0.05 -0.74,-0.08 -0.96,-0.08 -0.15,0 -0.38,0.02 -0.68,0.05 -0.31,0.04 -0.54,0.06 -0.69,0.06 -2.43,0 -3.64,-1.64 -3.64,-4.93zm4.54 2.52c1.34,-1.1 2.82,-3.02 4.42,-5.73 1.48,-2.52 2.52,-4.75 3.11,-6.68l-10.24 8.32c0.71,0.11 1.3,0.67 1.78,1.67l0.93 2.42zm-0.83 0.89l-0.8 -2.27c-0.42,-1.1 -0.83,-1.66 -1.23,-1.66 -0.42,0 -0.62,0.33 -0.62,0.98 0,0.64 0.19,1.32 0.57,2.01 0.44,0.78 0.95,1.17 1.55,1.17 0.22,0 0.41,-0.07 0.53,-0.23zm16.51 -4.57c-0.4,0 -0.6,-0.27 -0.6,-0.8 0,-0.42 0.36,-1.15 1.08,-2.18 1.08,-1.54 4.59,-5.8 10.49,-12.77 6.64,-7.82 10.31,-11.74 11.04,-11.74 0.59,0 0.89,0.37 0.89,1.12 0,1.68 -7.43,10.36 -22.27,26.06 -0.2,0.2 -0.4,0.31 -0.63,0.31zm-4.03 6.39c-0.92,0 -1.38,-0.47 -1.38,-1.41 0,-0.78 0.37,-1.57 1.1,-2.37 0.75,-0.81 1.51,-1.21 2.3,-1.21 0.98,0 1.46,0.47 1.46,1.41 0,0.76 -0.39,1.54 -1.16,2.35 -0.78,0.82 -1.55,1.23 -2.32,1.23z"



  />
 </g>
</svg>
